<?xml version="1.0" encoding="UTF-8"?>
<svg id="Layer_2" data-name="Layer 2" xmlns="http://www.w3.org/2000/svg" viewBox="0 0 332.72 174.08">
  <defs>
    <style>
      .cls-1 {
        fill: #fbfbfb;
      }
    </style>
  </defs>
  <g id="Calque_1" data-name="Calque 1">
    <g>
      <path class="cls-1" d="M142.25,110.82c0-10.26,3.71-15.39,11.14-15.39,3.09,0,5.75,1.07,7.96,3.21,2.22,2.14,3.33,4.73,3.33,7.77s-1.07,5.67-3.21,7.89c-2.14,2.22-4.71,3.32-7.69,3.32-2.37,0-4.74-.95-7.12-2.86v31.86c3.4.36,5.98.54,7.73.54,10.72,0,20-3.97,27.84-11.91,7.84-7.94,11.75-17.37,11.75-28.3s-3.94-20.73-11.83-28.46c-7.89-7.73-17.58-11.6-29.08-11.6-5.77,0-11.41,1.26-16.9,3.79-5.49,2.53-10.01,5.93-13.57,10.21-6.18,7.42-9.28,17.04-9.28,28.84v64.34h28.92v-63.26ZM206.67,68.45v77.1h28.92v-77.1h-28.92ZM211.04,38.17c-2.86,2.76-4.29,6.02-4.29,9.78,0,4.02,1.35,7.32,4.06,9.9,2.71,2.58,6.17,3.87,10.4,3.87s7.69-1.29,10.4-3.87c2.71-2.58,4.06-5.88,4.06-9.9,0-3.76-1.43-7.02-4.29-9.78-2.86-2.76-6.25-4.14-10.17-4.14s-7.31,1.38-10.17,4.14ZM252.6,39.99v105.56h28.92V39.99h-28.92ZM295.75,68.45l-13.15,26.76,18.1,50.34h32.01l-21.03-49.03,14.15-28.07h-30.08ZM235.4,154.73v11.6c0,2.13.56,3.87,1.68,5.21.64.77,1.46,1.39,2.45,1.84.99.46,2.01.68,3.05.68,2.07,0,3.82-.7,5.25-2.09s2.14-3.11,2.14-5.15-.7-3.7-2.1-5.11c-1.4-1.41-3.08-2.12-5.05-2.12-.32,0-.78.03-1.4.08v5.75c.49-.34.93-.5,1.31-.5.54,0,1,.19,1.37.58.37.39.56.86.56,1.43s-.2,1.02-.59,1.4c-.4.39-.88.58-1.44.58-1.33,0-2-.93-2-2.78v-11.41h-5.22ZM264.01,159.58c-1.83,0-3.3.6-4.4,1.79-1.1,1.2-1.65,2.8-1.65,4.81v7.61h5.22v-6.6c0-1.45.48-2.18,1.43-2.18.3,0,.63.1.99.31v-5.59c-.65-.1-1.18-.15-1.59-.15ZM279.32,168.93c-.56,0-1.02-.19-1.38-.56-.36-.37-.54-.85-.54-1.43,0-.55.2-1.02.6-1.42.4-.4.88-.6,1.43-.6.6,0,1.09.22,1.44.66.36.44.54,1.02.54,1.76v6.45h5.22v-6.83c0-2.28-.65-4.08-1.95-5.4-1.3-1.32-3.07-1.98-5.33-1.98-2.02,0-3.73.7-5.14,2.11-1.41,1.41-2.12,3.12-2.12,5.14s.7,3.8,2.09,5.18c1.4,1.38,3.14,2.07,5.24,2.07.35,0,.74-.04,1.17-.11v-5.4c-.39.24-.81.36-1.27.36ZM307.79,166.44c0-2.01-.47-3.58-1.41-4.7-1.2-1.44-2.8-2.16-4.79-2.16-1.74,0-3.21.62-4.41,1.86-1.2,1.24-1.8,2.77-1.8,4.59v7.76h5.22v-7.86c0-.8.33-1.2.98-1.2s.99.4.99,1.2v7.86h5.22v-7.34ZM325.13,166.14c0,1.85-.67,2.78-2.01,2.78-.56,0-1.04-.19-1.44-.58-.4-.39-.6-.85-.6-1.39s.19-1.03.58-1.43c.38-.4.85-.59,1.39-.59.43,0,.86.17,1.28.5v-5.75c-.62-.06-1.09-.08-1.39-.08-1.94,0-3.61.72-5.03,2.15-1.41,1.43-2.12,3.13-2.12,5.1s.71,3.74,2.14,5.14c1.42,1.4,3.17,2.09,5.25,2.09,1.04,0,2.06-.23,3.05-.68.99-.46,1.81-1.07,2.45-1.84,1.12-1.34,1.68-3.07,1.68-5.21v-11.6h-5.22v11.41Z"/>
      <g>
        <path class="cls-1" d="M79.73,45.49c-.3,4.2-1.28,8.21-2.85,11.93-3.63,8.65-10.38,15.67-18.85,19.66-.73.36-1.49.68-2.25.98-3.2,1.85-5.35,5.32-5.35,9.28s2.06,7.28,5.15,9.17c1.63.99,3.53,1.56,5.58,1.56,1.39,0,2.72-.26,3.94-.75.02,0,.05-.02.06-.02.49-.23.97-.46,1.45-.72,7.3-3.81,13.11-10.09,16.32-17.73,1.77-4.22,2.76-8.85,2.76-13.71,0-7.28-2.19-14.03-5.95-19.66Z"/>
        <path class="cls-1" d="M100.44,112.31c0,7.99-3.44,15.17-8.92,20.16-.49.44-.99.86-1.5,1.26-9.49,7.74-21.6,12.37-34.8,12.37-2.72,0-5.41-.19-8.02-.58C20.5,141.63,0,118.66,0,90.9c0-15.02,6-28.64,15.74-38.59,2.21-2.26,11.32-8.65,13.29-10.02,14.33-10,24.99-24.9,29.53-42.28,5.97,6.12,9.64,14.49,9.64,23.71,0,4.59-.91,8.97-2.55,12.96-3.01,7.3-8.48,13.32-15.39,17.02-.76.33-1.51.7-2.24,1.1-11.16,5.96-18.76,17.73-18.76,31.27,0,12.83,6.81,24.06,17.02,30.28,5.36,3.27,11.67,5.15,18.41,5.15,14.71,0,27.33-8.97,32.68-21.73,1.96,3.75,3.07,8.02,3.07,12.55Z"/>
      </g>
    </g>
  </g>
</svg>